<?xml version="1.0" encoding="UTF-8" ?>
<!DOCTYPE svg PUBLIC "-//W3C//DTD SVG 1.1//EN" "http://www.w3.org/Graphics/SVG/1.1/DTD/svg11.dtd">
<svg width="966pt" height="1250pt" viewBox="0 0 966 1250" version="1.1" xmlns="http://www.w3.org/2000/svg">
<g id="#0d2738ff">
<path fill="#0d2738" opacity="1.00" d=" M 54.63 527.81 C 62.30 524.54 70.73 523.94 78.95 523.71 C 96.77 523.67 114.59 523.71 132.41 523.59 C 132.46 533.67 132.40 543.76 132.46 553.84 C 112.99 554.68 93.48 553.89 74.00 554.25 C 64.92 554.78 56.76 560.23 51.13 567.13 C 45.30 574.39 43.76 583.99 43.22 593.03 C 42.13 600.59 43.27 608.22 44.11 615.75 C 46.15 629.88 57.60 643.42 72.39 644.44 C 82.50 644.78 92.62 644.51 102.74 644.66 C 102.70 634.36 102.73 624.06 102.72 613.76 C 94.24 613.70 85.76 613.71 77.28 613.72 C 77.29 604.41 77.25 595.10 77.31 585.79 C 89.21 585.61 101.10 585.78 113.00 585.72 C 119.48 585.78 125.99 585.40 132.43 586.29 C 132.42 601.22 132.38 616.14 132.52 631.07 C 132.65 633.56 131.96 635.98 131.03 638.28 C 126.51 649.90 122.69 661.79 118.25 673.44 C 117.90 674.85 116.10 674.44 115.04 674.62 C 101.01 674.66 86.98 674.60 72.95 674.64 C 64.01 674.88 55.46 671.45 47.75 667.21 C 36.15 661.00 26.63 651.15 20.53 639.52 C 14.24 628.11 12.16 614.86 12.32 601.97 C 12.19 584.12 14.31 565.12 25.19 550.33 C 32.20 539.81 43.14 532.62 54.63 527.81 Z" />
<path fill="#0d2738" opacity="1.00" d=" M 193.51 523.70 C 204.63 523.67 215.75 523.54 226.87 523.71 C 228.42 523.38 229.03 524.89 229.61 526.02 C 244.11 563.57 259.12 600.93 273.40 638.57 C 278.06 650.56 283.30 662.36 287.31 674.60 C 275.32 674.66 263.33 674.63 251.34 674.62 C 248.05 666.54 244.84 658.44 241.32 650.46 C 221.45 650.62 201.58 650.79 181.71 650.50 C 178.25 658.37 175.62 666.56 172.69 674.64 C 160.70 674.59 148.71 674.70 136.73 674.58 C 143.28 654.68 151.71 635.44 158.73 615.70 C 166.85 594.57 174.29 573.18 182.64 552.13 C 186.38 542.70 189.45 533.00 193.51 523.70 M 211.03 568.50 C 206.88 577.79 205.20 588.04 200.90 597.24 C 192.12 597.78 183.31 597.34 174.52 597.63 C 180.89 604.33 187.96 610.34 194.91 616.42 C 192.50 627.51 188.58 638.20 185.77 649.19 C 194.36 642.99 202.83 636.62 211.19 630.12 C 220.30 636.47 228.89 643.56 238.10 649.78 C 235.80 638.59 232.06 627.75 229.03 616.74 C 236.23 610.14 243.88 604.06 251.21 597.60 C 241.73 597.43 232.24 597.51 222.76 597.42 C 218.30 588.00 215.79 577.77 211.03 568.50 Z" />
<path fill="#0d2738" opacity="1.00" d=" M 254.25 523.65 C 285.33 523.65 316.40 523.71 347.47 523.63 C 349.44 533.86 351.69 544.06 354.93 553.99 C 336.21 554.49 317.48 554.01 298.76 554.23 C 301.95 564.96 306.90 575.01 311.01 585.39 C 327.79 585.53 344.56 585.24 361.34 585.49 C 363.48 595.02 365.98 604.47 368.94 613.78 C 353.28 613.91 337.61 613.44 321.96 614.00 C 325.14 624.50 329.32 634.69 333.58 644.79 C 349.62 644.57 365.67 644.75 381.72 644.66 C 385.09 654.54 387.51 664.71 390.87 674.60 C 365.32 674.70 339.77 674.55 314.21 674.67 C 301.26 642.85 289.22 610.67 276.75 578.66 C 269.59 560.18 262.60 541.64 254.25 523.65 Z" />
<path fill="#0d2738" opacity="1.00" d=" M 360.02 523.57 C 370.81 523.66 381.59 523.54 392.38 523.70 C 404.48 559.08 415.95 594.67 428.00 630.06 C 436.11 606.88 443.51 583.45 451.62 560.27 C 456.01 548.19 459.49 535.82 463.82 523.73 C 501.65 523.58 539.48 523.73 577.31 523.75 C 577.49 533.76 577.31 543.79 577.43 553.81 C 558.90 554.68 540.32 553.94 521.78 554.21 C 521.74 564.90 521.67 575.60 521.77 586.29 C 537.95 585.59 554.15 585.62 570.35 585.72 C 570.53 595.05 570.40 604.39 570.44 613.72 C 554.22 613.84 537.99 613.68 521.76 613.78 C 521.72 624.07 521.73 634.37 521.77 644.66 C 540.30 644.75 558.82 644.60 577.35 644.71 C 577.46 654.68 577.34 664.66 577.43 674.64 C 549.13 674.62 520.82 674.62 492.52 674.63 C 492.63 634.17 492.72 593.71 492.54 553.24 C 490.76 553.23 488.99 553.23 487.22 553.24 C 471.85 593.43 457.14 633.87 443.05 674.52 C 433.19 674.76 423.32 674.56 413.46 674.64 C 395.18 624.45 377.83 573.93 360.02 523.57 Z" />
<path fill="#0d2738" opacity="1.00" d=" M 593.55 523.62 C 602.06 523.66 610.58 523.60 619.09 523.64 C 620.84 523.76 622.91 523.47 624.33 524.75 C 626.33 526.80 627.64 529.38 629.16 531.79 C 640.98 551.56 653.14 571.13 665.13 590.80 C 670.77 599.78 675.75 609.21 681.99 617.79 C 682.49 594.87 682.08 571.93 682.19 549.00 C 681.47 540.55 682.37 532.11 682.28 523.65 C 691.72 523.64 701.16 523.64 710.60 523.67 C 710.75 536.11 710.65 548.56 710.74 561.01 C 711.74 577.98 711.07 595.00 711.29 612.00 C 711.23 632.88 711.49 653.76 711.37 674.65 C 701.94 674.63 692.51 674.61 683.08 674.65 C 667.10 649.99 651.57 625.05 635.92 600.18 C 631.75 593.58 627.87 586.80 623.32 580.45 C 623.13 611.85 623.33 643.25 623.33 674.65 C 613.39 674.61 603.46 674.62 593.53 674.64 C 593.55 624.30 593.46 573.96 593.55 523.62 Z" />
<path fill="#0d2738" opacity="1.00" d=" M 727.24 523.60 C 763.34 523.76 799.44 523.71 835.55 523.63 C 835.66 533.96 835.57 544.29 835.65 554.61 C 822.51 554.59 809.36 555.02 796.25 554.11 C 796.43 574.08 795.06 594.04 796.17 614.00 C 796.22 634.20 796.25 654.42 796.17 674.63 C 786.28 674.62 776.38 674.67 766.49 674.59 C 766.53 634.45 766.58 594.31 766.48 554.17 C 753.27 554.05 740.04 554.54 726.84 553.90 C 726.93 543.80 726.35 533.67 727.24 523.60 Z" />
<path fill="#0d2738" opacity="1.00" d=" M 887.51 524.06 C 905.74 523.22 924.03 523.92 942.28 523.66 C 943.96 533.67 943.13 543.83 943.68 553.92 C 925.88 554.63 908.04 554.16 890.23 554.51 C 886.59 554.62 882.86 555.62 880.05 558.02 C 875.60 561.47 874.50 568.20 876.73 573.21 C 879.30 578.16 885.09 579.81 890.14 580.96 C 901.90 583.48 913.77 585.59 925.36 588.87 C 936.66 592.13 947.64 599.48 952.15 610.75 C 956.17 621.08 957.84 632.79 954.38 643.53 C 950.79 657.61 939.26 668.96 925.49 673.18 C 918.19 675.39 910.50 674.43 903.00 674.63 C 883.84 674.62 864.68 674.66 845.53 674.61 C 845.50 664.48 845.54 654.35 845.49 644.23 C 868.01 644.17 890.54 644.51 913.05 644.16 C 921.39 644.21 928.46 635.18 926.05 627.16 C 923.62 621.16 916.73 619.28 911.05 617.82 C 894.23 613.63 876.44 610.95 861.65 601.30 C 850.93 594.43 845.29 581.50 845.35 569.03 C 844.20 546.08 864.35 524.08 887.51 524.06 Z" />
</g>
</svg>
